<svg width="1210" height="400" viewBox="0 0 1210 400" fill="none" xmlns="http://www.w3.org/2000/svg">
<path d="M1055.86 80.6L1083.69 247.8H1028.03L1055.86 80.6ZM1132.63 23.4C1130.43 11.7 1122.02 5.59999 1110.41 5.59999H1001.41C989.7 5.59999 981.392 11.7 979.19 23.4L901.92 394.5H983.694C997.006 394.5 1005.41 388.4 1007.62 374.5L1017.02 315.6H1094.9L1104.3 374.5C1106.51 388.4 1114.91 394.5 1128.23 394.5H1210L1132.63 23.4ZM820.146 394.5C831.256 394.5 838.462 389.5 840.764 377.8L918.535 5.59999H835.159C822.948 5.59999 815.742 12.3 813.44 23.9L764.495 312.2L715.551 23.9C713.349 12.2 706.142 5.59999 693.831 5.59999H610.455L688.326 377.8C690.528 389.5 697.734 394.5 708.945 394.5H820.146V394.5ZM473.13 80.6L500.955 247.8H445.305L473.13 80.6ZM549.9 23.4C547.698 11.7 539.29 5.59999 527.68 5.59999H418.681C406.97 5.59999 398.663 11.7 396.461 23.4L319.19 394.5H400.965C414.277 394.5 422.684 388.4 424.886 374.5L434.295 315.6H512.166L521.574 374.5C523.776 388.4 532.184 394.5 545.496 394.5H627.27L549.9 23.4ZM153.44 400C253.531 400 297.971 351.1 297.971 260.6C297.971 246.7 292.966 240 276.251 240H201.784C199.582 286.1 187.871 322.2 153.94 322.2C121.11 322.2 102.794 287.8 102.794 210V190C102.794 112.2 121.11 77.8 153.94 77.8C187.871 77.8 199.582 113.9 201.784 160H276.251C292.966 160 297.971 153.3 297.971 139.4C297.971 48.8 253.531 0 153.44 0C53.9492 0 0.000139022 75.6 0.000139022 186.7V213.4C-0.099952 324.5 53.8491 400 153.44 400Z" fill="black"/>
</svg>